<svg width="20" height="25" viewBox="0 0 20 25" fill="none" xmlns="http://www.w3.org/2000/svg">
<path d="M9.912 24.3813C12.27 20.8013 11.92 15.9113 8.733 12.7233C6.768 10.7593 5.72 8.22626 5.72 5.43226C5.72 3.77226 6.157 2.11326 6.9 0.672264C2.97 1.98226 0 6.69826 0 12.3743C0 19.0113 4.105 24.4243 9.082 24.4243C9.344 24.4253 9.606 24.4253 9.912 24.3813Z" fill="white"/>
<path d="M9.96432 0.000267029C9.70232 0.000267029 8.77032 0.150267 8.46432 0.194267C6.10632 3.77427 7.12632 8.51427 10.3143 11.7023C12.2793 13.6673 13.3263 16.1993 13.3263 18.9943C13.3263 20.6533 12.4253 21.8943 11.6833 23.3343C15.6133 22.0243 19.0463 17.7273 19.0463 12.0513C19.0463 5.41527 14.9863 -0.043733 9.96432 0.000267029Z" fill="white"/>
</svg>
