<svg width="16" height="16" viewBox="0 0 16 16" fill="none" xmlns="http://www.w3.org/2000/svg">
<path d="M14.6978 12.3407L9.93222 7.5751L14.6978 2.80949C15.3202 2.18709 15.2981 1.15589 14.6463 0.504028C13.9944 -0.147836 12.9632 -0.169933 12.3408 0.452468L7.5752 5.21807L2.80959 0.452468C2.18719 -0.169933 1.15599 -0.147836 0.504128 0.504028C-0.147736 1.15589 -0.169833 2.18709 0.452568 2.80949L5.21817 7.5751L0.452568 12.3407C-0.169833 12.9631 -0.147736 13.9943 0.504128 14.6462C1.15599 15.298 2.18719 15.3201 2.80959 14.6977L7.5752 9.93212L12.3408 14.6977C12.9632 15.3201 13.9944 15.298 14.6463 14.6462C15.2981 13.9943 15.3202 12.9631 14.6978 12.3407Z" fill="white"/>
</svg>
